<mxfile host="app.diagrams.net" modified="2023-05-15T07:39:21.954Z" agent="Mozilla/5.0 (Windows NT 10.0; Win64; x64) AppleWebKit/537.36 (KHTML, like Gecko) Chrome/113.0.0.0 Safari/537.36" etag="OkS1CnJlrXnjQyAhFWnC" version="21.3.0" type="device">
  <diagram name="Page-1" id="wxyTc6Z8XhhgONTOJQ_e">
    <mxGraphModel dx="1858" dy="1153" grid="1" gridSize="10" guides="1" tooltips="1" connect="1" arrows="1" fold="1" page="1" pageScale="1" pageWidth="850" pageHeight="1100" math="0" shadow="0">
      <root>
        <mxCell id="0" />
        <mxCell id="1" parent="0" />
        <mxCell id="w34_SWaQO84K7jkopNHR-30" value="&lt;h1&gt;USER TABLE&lt;/h1&gt;" style="text;html=1;strokeColor=none;fillColor=none;spacing=5;spacingTop=-20;whiteSpace=wrap;overflow=hidden;rounded=0;fontFamily=Courier New;labelBackgroundColor=none;" parent="1" vertex="1">
          <mxGeometry x="60" y="220" width="190" height="40" as="geometry" />
        </mxCell>
        <mxCell id="w34_SWaQO84K7jkopNHR-31" value="&lt;u style=&quot;&quot;&gt;&lt;b&gt;username&lt;/b&gt;&lt;/u&gt;" style="rounded=0;whiteSpace=wrap;html=1;fontFamily=Courier New;labelBackgroundColor=none;fillColor=#f8cecc;strokeColor=#b85450;" parent="1" vertex="1">
          <mxGeometry x="60" y="270" width="120" height="60" as="geometry" />
        </mxCell>
        <mxCell id="w34_SWaQO84K7jkopNHR-32" value="email_address" style="rounded=0;whiteSpace=wrap;html=1;fontFamily=Courier New;labelBackgroundColor=none;fillColor=#dae8fc;strokeColor=#6c8ebf;" parent="1" vertex="1">
          <mxGeometry x="180" y="270" width="120" height="60" as="geometry" />
        </mxCell>
        <mxCell id="w34_SWaQO84K7jkopNHR-33" value="D.O.B" style="rounded=0;whiteSpace=wrap;html=1;fontFamily=Courier New;labelBackgroundColor=none;fillColor=#dae8fc;strokeColor=#6c8ebf;" parent="1" vertex="1">
          <mxGeometry x="300" y="270" width="120" height="60" as="geometry" />
        </mxCell>
        <mxCell id="w34_SWaQO84K7jkopNHR-34" value="&lt;h1&gt;USER_PHN_NO TABLE&lt;/h1&gt;" style="text;html=1;strokeColor=none;fillColor=none;spacing=5;spacingTop=-20;whiteSpace=wrap;overflow=hidden;rounded=0;fontFamily=Courier New;labelBackgroundColor=none;" parent="1" vertex="1">
          <mxGeometry x="60" y="350" width="280" height="40" as="geometry" />
        </mxCell>
        <mxCell id="w34_SWaQO84K7jkopNHR-149" style="edgeStyle=orthogonalEdgeStyle;rounded=0;orthogonalLoop=1;jettySize=auto;html=1;exitX=0;exitY=0.5;exitDx=0;exitDy=0;entryX=0;entryY=0.25;entryDx=0;entryDy=0;fontFamily=Courier New;labelBackgroundColor=none;fontColor=default;" parent="1" source="w34_SWaQO84K7jkopNHR-35" target="w34_SWaQO84K7jkopNHR-31" edge="1">
          <mxGeometry relative="1" as="geometry">
            <Array as="points">
              <mxPoint x="30" y="440" />
              <mxPoint x="30" y="285" />
            </Array>
          </mxGeometry>
        </mxCell>
        <mxCell id="w34_SWaQO84K7jkopNHR-35" value="username" style="rounded=0;whiteSpace=wrap;html=1;fontStyle=5;fontFamily=Courier New;labelBackgroundColor=none;fillColor=#f8cecc;strokeColor=#b85450;" parent="1" vertex="1">
          <mxGeometry x="60" y="410" width="120" height="60" as="geometry" />
        </mxCell>
        <mxCell id="w34_SWaQO84K7jkopNHR-36" value="phone_no" style="rounded=0;whiteSpace=wrap;html=1;fontStyle=5;fontFamily=Courier New;labelBackgroundColor=none;fillColor=#f8cecc;strokeColor=#b85450;" parent="1" vertex="1">
          <mxGeometry x="180" y="410" width="120" height="60" as="geometry" />
        </mxCell>
        <mxCell id="w34_SWaQO84K7jkopNHR-37" value="&lt;h1&gt;CUSTOMER TABLE&lt;/h1&gt;" style="text;html=1;strokeColor=none;fillColor=none;spacing=5;spacingTop=-20;whiteSpace=wrap;overflow=hidden;rounded=0;fontFamily=Courier New;labelBackgroundColor=none;" parent="1" vertex="1">
          <mxGeometry x="60" y="490" width="270" height="40" as="geometry" />
        </mxCell>
        <mxCell id="w34_SWaQO84K7jkopNHR-52" value="" style="edgeStyle=orthogonalEdgeStyle;rounded=0;orthogonalLoop=1;jettySize=auto;html=1;entryX=0;entryY=0.5;entryDx=0;entryDy=0;fontFamily=Courier New;labelBackgroundColor=none;fontColor=default;" parent="1" source="w34_SWaQO84K7jkopNHR-38" target="w34_SWaQO84K7jkopNHR-31" edge="1">
          <mxGeometry relative="1" as="geometry">
            <mxPoint x="20" y="420" as="targetPoint" />
            <Array as="points">
              <mxPoint x="120" y="540" />
              <mxPoint x="20" y="540" />
              <mxPoint x="20" y="300" />
            </Array>
          </mxGeometry>
        </mxCell>
        <mxCell id="w34_SWaQO84K7jkopNHR-38" value="username" style="rounded=0;whiteSpace=wrap;html=1;fontFamily=Courier New;fontStyle=5;labelBackgroundColor=none;fillColor=#f8cecc;strokeColor=#b85450;" parent="1" vertex="1">
          <mxGeometry x="60" y="560" width="120" height="60" as="geometry" />
        </mxCell>
        <mxCell id="w34_SWaQO84K7jkopNHR-39" value="street" style="rounded=0;whiteSpace=wrap;html=1;fontFamily=Courier New;labelBackgroundColor=none;fillColor=#dae8fc;strokeColor=#6c8ebf;" parent="1" vertex="1">
          <mxGeometry x="180" y="560" width="120" height="60" as="geometry" />
        </mxCell>
        <mxCell id="w34_SWaQO84K7jkopNHR-40" value="city" style="rounded=0;whiteSpace=wrap;html=1;fontFamily=Courier New;labelBackgroundColor=none;fillColor=#dae8fc;strokeColor=#6c8ebf;" parent="1" vertex="1">
          <mxGeometry x="300" y="560" width="120" height="60" as="geometry" />
        </mxCell>
        <mxCell id="w34_SWaQO84K7jkopNHR-41" value="state" style="rounded=0;whiteSpace=wrap;html=1;fontFamily=Courier New;labelBackgroundColor=none;fillColor=#dae8fc;strokeColor=#6c8ebf;" parent="1" vertex="1">
          <mxGeometry x="420" y="560" width="120" height="60" as="geometry" />
        </mxCell>
        <mxCell id="w34_SWaQO84K7jkopNHR-42" value="first_name" style="rounded=0;whiteSpace=wrap;html=1;fontFamily=Courier New;labelBackgroundColor=none;fillColor=#dae8fc;strokeColor=#6c8ebf;" parent="1" vertex="1">
          <mxGeometry x="540" y="560" width="120" height="60" as="geometry" />
        </mxCell>
        <mxCell id="w34_SWaQO84K7jkopNHR-43" value="last_name" style="rounded=0;whiteSpace=wrap;html=1;fontFamily=Courier New;labelBackgroundColor=none;fillColor=#dae8fc;strokeColor=#6c8ebf;" parent="1" vertex="1">
          <mxGeometry x="660" y="560" width="120" height="60" as="geometry" />
        </mxCell>
        <mxCell id="w34_SWaQO84K7jkopNHR-44" value="&lt;h1&gt;ADMINISTRATOR TABLE&lt;/h1&gt;" style="text;html=1;strokeColor=none;fillColor=none;spacing=5;spacingTop=-20;whiteSpace=wrap;overflow=hidden;rounded=0;fontFamily=Courier New;labelBackgroundColor=none;" parent="1" vertex="1">
          <mxGeometry x="60" y="660" width="350" height="40" as="geometry" />
        </mxCell>
        <mxCell id="w34_SWaQO84K7jkopNHR-201" style="edgeStyle=orthogonalEdgeStyle;rounded=0;orthogonalLoop=1;jettySize=auto;html=1;exitX=0;exitY=0.5;exitDx=0;exitDy=0;labelBackgroundColor=none;fontColor=default;" parent="1" source="w34_SWaQO84K7jkopNHR-45" edge="1">
          <mxGeometry relative="1" as="geometry">
            <mxPoint x="60" y="270" as="targetPoint" />
            <Array as="points">
              <mxPoint x="10" y="750" />
              <mxPoint x="10" y="270" />
            </Array>
          </mxGeometry>
        </mxCell>
        <mxCell id="w34_SWaQO84K7jkopNHR-45" value="username" style="rounded=0;whiteSpace=wrap;html=1;fontFamily=Courier New;fontStyle=5;labelBackgroundColor=none;fillColor=#f8cecc;strokeColor=#b85450;" parent="1" vertex="1">
          <mxGeometry x="60" y="720" width="120" height="60" as="geometry" />
        </mxCell>
        <mxCell id="w34_SWaQO84K7jkopNHR-46" value="&lt;h1&gt;ORDERS TABLE&lt;/h1&gt;" style="text;html=1;strokeColor=none;fillColor=none;spacing=5;spacingTop=-20;whiteSpace=wrap;overflow=hidden;rounded=0;fontFamily=Courier New;labelBackgroundColor=none;" parent="1" vertex="1">
          <mxGeometry x="60" y="800" width="260" height="40" as="geometry" />
        </mxCell>
        <mxCell id="w34_SWaQO84K7jkopNHR-47" value="&lt;b&gt;&lt;u&gt;order_id&lt;/u&gt;&lt;/b&gt;" style="rounded=0;whiteSpace=wrap;html=1;fontFamily=Courier New;labelBackgroundColor=none;fillColor=#f8cecc;strokeColor=#b85450;" parent="1" vertex="1">
          <mxGeometry x="60" y="870" width="120" height="60" as="geometry" />
        </mxCell>
        <mxCell id="w34_SWaQO84K7jkopNHR-48" value="invoice_no" style="rounded=0;whiteSpace=wrap;html=1;fontFamily=Courier New;labelBackgroundColor=none;fillColor=#dae8fc;strokeColor=#6c8ebf;" parent="1" vertex="1">
          <mxGeometry x="180" y="870" width="120" height="60" as="geometry" />
        </mxCell>
        <mxCell id="w34_SWaQO84K7jkopNHR-49" value="order_date" style="rounded=0;whiteSpace=wrap;html=1;fontFamily=Courier New;labelBackgroundColor=none;fillColor=#dae8fc;strokeColor=#6c8ebf;" parent="1" vertex="1">
          <mxGeometry x="300" y="870" width="120" height="60" as="geometry" />
        </mxCell>
        <mxCell id="w34_SWaQO84K7jkopNHR-50" value="order_status" style="rounded=0;whiteSpace=wrap;html=1;fontFamily=Courier New;labelBackgroundColor=none;fillColor=#dae8fc;strokeColor=#6c8ebf;" parent="1" vertex="1">
          <mxGeometry x="420" y="870" width="120" height="60" as="geometry" />
        </mxCell>
        <mxCell id="w34_SWaQO84K7jkopNHR-203" style="edgeStyle=orthogonalEdgeStyle;rounded=0;orthogonalLoop=1;jettySize=auto;html=1;exitX=0.5;exitY=0;exitDx=0;exitDy=0;entryX=0.446;entryY=1.062;entryDx=0;entryDy=0;entryPerimeter=0;labelBackgroundColor=none;fontColor=default;" parent="1" source="w34_SWaQO84K7jkopNHR-51" target="w34_SWaQO84K7jkopNHR-38" edge="1">
          <mxGeometry relative="1" as="geometry">
            <Array as="points">
              <mxPoint x="600" y="850" />
              <mxPoint x="30" y="850" />
              <mxPoint x="30" y="640" />
              <mxPoint x="114" y="640" />
            </Array>
          </mxGeometry>
        </mxCell>
        <mxCell id="w34_SWaQO84K7jkopNHR-51" value="username" style="rounded=0;whiteSpace=wrap;html=1;fontFamily=Courier New;labelBackgroundColor=none;fillColor=#dae8fc;strokeColor=#6c8ebf;" parent="1" vertex="1">
          <mxGeometry x="540" y="870" width="120" height="60" as="geometry" />
        </mxCell>
        <mxCell id="w34_SWaQO84K7jkopNHR-57" value="&lt;h1&gt;TRACKING_DETAILS TABLE&lt;/h1&gt;" style="text;html=1;strokeColor=none;fillColor=none;spacing=5;spacingTop=-20;whiteSpace=wrap;overflow=hidden;rounded=0;fontFamily=Courier New;labelBackgroundColor=none;" parent="1" vertex="1">
          <mxGeometry x="60" y="960" width="330" height="40" as="geometry" />
        </mxCell>
        <mxCell id="w34_SWaQO84K7jkopNHR-58" value="tracking_id" style="rounded=0;whiteSpace=wrap;html=1;fontStyle=5;fontFamily=Courier New;labelBackgroundColor=none;fillColor=#f8cecc;strokeColor=#b85450;" parent="1" vertex="1">
          <mxGeometry x="60" y="1040" width="120" height="60" as="geometry" />
        </mxCell>
        <mxCell id="w34_SWaQO84K7jkopNHR-64" value="" style="edgeStyle=orthogonalEdgeStyle;rounded=0;orthogonalLoop=1;jettySize=auto;html=1;entryX=-0.004;entryY=0.639;entryDx=0;entryDy=0;entryPerimeter=0;fontFamily=Courier New;labelBackgroundColor=none;fontColor=default;" parent="1" source="w34_SWaQO84K7jkopNHR-59" target="w34_SWaQO84K7jkopNHR-47" edge="1">
          <mxGeometry relative="1" as="geometry">
            <Array as="points">
              <mxPoint x="240" y="1020" />
              <mxPoint x="30" y="1020" />
              <mxPoint x="30" y="908" />
            </Array>
          </mxGeometry>
        </mxCell>
        <mxCell id="w34_SWaQO84K7jkopNHR-59" value="order_id" style="rounded=0;whiteSpace=wrap;html=1;fontStyle=5;fontFamily=Courier New;labelBackgroundColor=none;fillColor=#f8cecc;strokeColor=#b85450;" parent="1" vertex="1">
          <mxGeometry x="180" y="1040" width="120" height="60" as="geometry" />
        </mxCell>
        <mxCell id="w34_SWaQO84K7jkopNHR-60" value="courier_name" style="rounded=0;whiteSpace=wrap;html=1;fontFamily=Courier New;labelBackgroundColor=none;fillColor=#dae8fc;strokeColor=#6c8ebf;" parent="1" vertex="1">
          <mxGeometry x="300" y="1040" width="120" height="60" as="geometry" />
        </mxCell>
        <mxCell id="w34_SWaQO84K7jkopNHR-61" value="update_time" style="rounded=0;whiteSpace=wrap;html=1;fontFamily=Courier New;labelBackgroundColor=none;fillColor=#dae8fc;strokeColor=#6c8ebf;" parent="1" vertex="1">
          <mxGeometry x="420" y="1040" width="120" height="60" as="geometry" />
        </mxCell>
        <mxCell id="w34_SWaQO84K7jkopNHR-62" value="description" style="rounded=0;whiteSpace=wrap;html=1;fontFamily=Courier New;labelBackgroundColor=none;fillColor=#dae8fc;strokeColor=#6c8ebf;" parent="1" vertex="1">
          <mxGeometry x="540" y="1040" width="120" height="60" as="geometry" />
        </mxCell>
        <mxCell id="w34_SWaQO84K7jkopNHR-65" value="&lt;h1&gt;ORDER_DETAILS TABLE&lt;/h1&gt;" style="text;html=1;strokeColor=none;fillColor=none;spacing=5;spacingTop=-20;whiteSpace=wrap;overflow=hidden;rounded=0;fontFamily=Courier New;labelBackgroundColor=none;" parent="1" vertex="1">
          <mxGeometry x="60" y="1130" width="430" height="40" as="geometry" />
        </mxCell>
        <mxCell id="w34_SWaQO84K7jkopNHR-66" value="order_details_id" style="rounded=0;whiteSpace=wrap;html=1;fontStyle=5;fontFamily=Courier New;labelBackgroundColor=none;fillColor=#f8cecc;strokeColor=#b85450;" parent="1" vertex="1">
          <mxGeometry x="60" y="1200" width="120" height="60" as="geometry" />
        </mxCell>
        <mxCell id="w34_SWaQO84K7jkopNHR-70" value="" style="edgeStyle=orthogonalEdgeStyle;rounded=0;orthogonalLoop=1;jettySize=auto;html=1;entryX=-0.025;entryY=0.838;entryDx=0;entryDy=0;entryPerimeter=0;fontFamily=Courier New;labelBackgroundColor=none;fontColor=default;" parent="1" source="w34_SWaQO84K7jkopNHR-67" target="w34_SWaQO84K7jkopNHR-47" edge="1">
          <mxGeometry relative="1" as="geometry">
            <mxPoint x="40" y="920" as="targetPoint" />
            <Array as="points">
              <mxPoint x="240" y="1180" />
              <mxPoint x="40" y="1180" />
              <mxPoint x="40" y="920" />
            </Array>
          </mxGeometry>
        </mxCell>
        <mxCell id="w34_SWaQO84K7jkopNHR-67" value="order_id" style="rounded=0;whiteSpace=wrap;html=1;fontStyle=5;fontFamily=Courier New;labelBackgroundColor=none;fillColor=#f8cecc;strokeColor=#b85450;" parent="1" vertex="1">
          <mxGeometry x="180" y="1200" width="120" height="60" as="geometry" />
        </mxCell>
        <mxCell id="w34_SWaQO84K7jkopNHR-68" value="discount" style="rounded=0;whiteSpace=wrap;html=1;fontFamily=Courier New;labelBackgroundColor=none;fillColor=#dae8fc;strokeColor=#6c8ebf;" parent="1" vertex="1">
          <mxGeometry x="300" y="1200" width="120" height="60" as="geometry" />
        </mxCell>
        <mxCell id="w34_SWaQO84K7jkopNHR-69" value="amount_to_pay" style="rounded=0;whiteSpace=wrap;html=1;fontFamily=Courier New;labelBackgroundColor=none;fillColor=#dae8fc;strokeColor=#6c8ebf;" parent="1" vertex="1">
          <mxGeometry x="420" y="1200" width="120" height="60" as="geometry" />
        </mxCell>
        <mxCell id="w34_SWaQO84K7jkopNHR-71" value="&lt;h1&gt;BOOK_INSTANCE TABLE&lt;/h1&gt;" style="text;html=1;strokeColor=none;fillColor=none;spacing=5;spacingTop=-20;whiteSpace=wrap;overflow=hidden;rounded=0;fontFamily=Courier New;labelBackgroundColor=none;" parent="1" vertex="1">
          <mxGeometry x="60" y="1300" width="420" height="40" as="geometry" />
        </mxCell>
        <mxCell id="w34_SWaQO84K7jkopNHR-72" value="copy_instance" style="rounded=0;whiteSpace=wrap;html=1;fontStyle=5;fontFamily=Courier New;labelBackgroundColor=none;fillColor=#f8cecc;strokeColor=#b85450;" parent="1" vertex="1">
          <mxGeometry x="60" y="1380" width="120" height="60" as="geometry" />
        </mxCell>
        <mxCell id="w34_SWaQO84K7jkopNHR-103" value="" style="edgeStyle=orthogonalEdgeStyle;rounded=0;orthogonalLoop=1;jettySize=auto;html=1;entryX=0;entryY=0.5;entryDx=0;entryDy=0;fontFamily=Courier New;labelBackgroundColor=none;fontColor=default;" parent="1" source="w34_SWaQO84K7jkopNHR-73" target="w34_SWaQO84K7jkopNHR-96" edge="1">
          <mxGeometry relative="1" as="geometry">
            <mxPoint x="20" y="1540" as="targetPoint" />
            <Array as="points">
              <mxPoint x="240" y="1460" />
              <mxPoint x="20" y="1460" />
              <mxPoint x="20" y="2310" />
            </Array>
          </mxGeometry>
        </mxCell>
        <mxCell id="w34_SWaQO84K7jkopNHR-73" value="book_ISBN" style="rounded=0;whiteSpace=wrap;html=1;fontStyle=5;fontFamily=Courier New;labelBackgroundColor=none;fillColor=#f8cecc;strokeColor=#b85450;" parent="1" vertex="1">
          <mxGeometry x="180" y="1380" width="120" height="60" as="geometry" />
        </mxCell>
        <mxCell id="w34_SWaQO84K7jkopNHR-74" value="quantity" style="rounded=0;whiteSpace=wrap;html=1;fontFamily=Courier New;labelBackgroundColor=none;fillColor=#dae8fc;strokeColor=#6c8ebf;" parent="1" vertex="1">
          <mxGeometry x="300" y="1380" width="120" height="60" as="geometry" />
        </mxCell>
        <mxCell id="w34_SWaQO84K7jkopNHR-77" value="" style="edgeStyle=orthogonalEdgeStyle;rounded=0;orthogonalLoop=1;jettySize=auto;html=1;entryX=0;entryY=0.833;entryDx=0;entryDy=0;entryPerimeter=0;fontFamily=Courier New;labelBackgroundColor=none;fontColor=default;" parent="1" source="w34_SWaQO84K7jkopNHR-75" target="w34_SWaQO84K7jkopNHR-66" edge="1">
          <mxGeometry relative="1" as="geometry">
            <mxPoint x="41" y="1270" as="targetPoint" />
            <Array as="points">
              <mxPoint x="480" y="1370" />
              <mxPoint x="41" y="1370" />
              <mxPoint x="41" y="1250" />
            </Array>
          </mxGeometry>
        </mxCell>
        <mxCell id="w34_SWaQO84K7jkopNHR-75" value="order_details_id" style="rounded=0;whiteSpace=wrap;html=1;fontFamily=Courier New;labelBackgroundColor=none;fillColor=#dae8fc;strokeColor=#6c8ebf;" parent="1" vertex="1">
          <mxGeometry x="420" y="1380" width="120" height="60" as="geometry" />
        </mxCell>
        <mxCell id="w34_SWaQO84K7jkopNHR-76" value="order_id" style="rounded=0;whiteSpace=wrap;html=1;fontFamily=Courier New;labelBackgroundColor=none;fillColor=#dae8fc;strokeColor=#6c8ebf;" parent="1" vertex="1">
          <mxGeometry x="540" y="1380" width="120" height="60" as="geometry" />
        </mxCell>
        <mxCell id="w34_SWaQO84K7jkopNHR-78" value="" style="edgeStyle=elbowEdgeStyle;elbow=vertical;endArrow=classic;html=1;curved=0;rounded=0;endSize=8;startSize=8;exitX=0.5;exitY=0;exitDx=0;exitDy=0;entryX=0.5;entryY=1;entryDx=0;entryDy=0;fontStyle=5;fontFamily=Courier New;labelBackgroundColor=none;fontColor=default;" parent="1" source="w34_SWaQO84K7jkopNHR-76" target="w34_SWaQO84K7jkopNHR-67" edge="1">
          <mxGeometry width="50" height="50" relative="1" as="geometry">
            <mxPoint x="340" y="1390" as="sourcePoint" />
            <mxPoint x="240" y="1270" as="targetPoint" />
            <Array as="points">
              <mxPoint x="240" y="1290" />
              <mxPoint x="400" y="1360" />
              <mxPoint x="20" y="1290" />
              <mxPoint x="160" y="1290" />
              <mxPoint x="20" y="1300" />
              <mxPoint x="90" y="1290" />
              <mxPoint x="20" y="1300" />
              <mxPoint y="1300" />
            </Array>
          </mxGeometry>
        </mxCell>
        <mxCell id="w34_SWaQO84K7jkopNHR-79" value="&lt;h1&gt;AUTHOR TABLE&lt;/h1&gt;" style="text;html=1;strokeColor=none;fillColor=none;spacing=5;spacingTop=-20;whiteSpace=wrap;overflow=hidden;rounded=0;fontFamily=Courier New;labelBackgroundColor=none;" parent="1" vertex="1">
          <mxGeometry x="60" y="1480" width="310" height="40" as="geometry" />
        </mxCell>
        <mxCell id="w34_SWaQO84K7jkopNHR-80" value="author_id" style="rounded=0;whiteSpace=wrap;html=1;fontStyle=5;fontFamily=Courier New;labelBackgroundColor=none;fillColor=#f8cecc;strokeColor=#b85450;" parent="1" vertex="1">
          <mxGeometry x="60" y="1550" width="120" height="60" as="geometry" />
        </mxCell>
        <mxCell id="w34_SWaQO84K7jkopNHR-81" value="author_name" style="rounded=0;whiteSpace=wrap;html=1;fontFamily=Courier New;labelBackgroundColor=none;fillColor=#dae8fc;strokeColor=#6c8ebf;" parent="1" vertex="1">
          <mxGeometry x="180" y="1550" width="120" height="60" as="geometry" />
        </mxCell>
        <mxCell id="w34_SWaQO84K7jkopNHR-82" value="email_address" style="rounded=0;whiteSpace=wrap;html=1;fontFamily=Courier New;labelBackgroundColor=none;fillColor=#dae8fc;strokeColor=#6c8ebf;" parent="1" vertex="1">
          <mxGeometry x="300" y="1550" width="120" height="60" as="geometry" />
        </mxCell>
        <mxCell id="w34_SWaQO84K7jkopNHR-83" value="&lt;h1&gt;CATEGORY TABLE&lt;/h1&gt;" style="text;html=1;strokeColor=none;fillColor=none;spacing=5;spacingTop=-20;whiteSpace=wrap;overflow=hidden;rounded=0;fontFamily=Courier New;labelBackgroundColor=none;" parent="1" vertex="1">
          <mxGeometry x="60" y="1650" width="410" height="40" as="geometry" />
        </mxCell>
        <mxCell id="w34_SWaQO84K7jkopNHR-84" value="category_id" style="rounded=0;whiteSpace=wrap;html=1;fontStyle=5;fontFamily=Courier New;labelBackgroundColor=none;fillColor=#f8cecc;strokeColor=#b85450;" parent="1" vertex="1">
          <mxGeometry x="60" y="1720" width="120" height="60" as="geometry" />
        </mxCell>
        <mxCell id="w34_SWaQO84K7jkopNHR-85" value="category_name" style="rounded=0;whiteSpace=wrap;html=1;fontFamily=Courier New;labelBackgroundColor=none;fillColor=#dae8fc;strokeColor=#6c8ebf;" parent="1" vertex="1">
          <mxGeometry x="180" y="1720" width="120" height="60" as="geometry" />
        </mxCell>
        <mxCell id="w34_SWaQO84K7jkopNHR-87" value="" style="edgeStyle=orthogonalEdgeStyle;rounded=0;orthogonalLoop=1;jettySize=auto;html=1;entryX=0.75;entryY=0;entryDx=0;entryDy=0;fontFamily=Courier New;labelBackgroundColor=none;fontColor=default;" parent="1" source="w34_SWaQO84K7jkopNHR-86" target="w34_SWaQO84K7jkopNHR-84" edge="1">
          <mxGeometry relative="1" as="geometry">
            <Array as="points">
              <mxPoint x="360" y="1700" />
              <mxPoint x="150" y="1700" />
            </Array>
          </mxGeometry>
        </mxCell>
        <mxCell id="w34_SWaQO84K7jkopNHR-86" value="parent_id" style="rounded=0;whiteSpace=wrap;html=1;fontFamily=Courier New;labelBackgroundColor=none;fillColor=#dae8fc;strokeColor=#6c8ebf;" parent="1" vertex="1">
          <mxGeometry x="300" y="1720" width="120" height="60" as="geometry" />
        </mxCell>
        <mxCell id="w34_SWaQO84K7jkopNHR-88" value="&lt;h1&gt;LANGUAGE TABLE&lt;/h1&gt;" style="text;html=1;strokeColor=none;fillColor=none;spacing=5;spacingTop=-20;whiteSpace=wrap;overflow=hidden;rounded=0;fontFamily=Courier New;labelBackgroundColor=none;" parent="1" vertex="1">
          <mxGeometry x="60" y="1820" width="340" height="40" as="geometry" />
        </mxCell>
        <mxCell id="w34_SWaQO84K7jkopNHR-89" value="language_id" style="rounded=0;whiteSpace=wrap;html=1;fontStyle=5;fontFamily=Courier New;labelBackgroundColor=none;fillColor=#f8cecc;strokeColor=#b85450;" parent="1" vertex="1">
          <mxGeometry x="60" y="1890" width="120" height="60" as="geometry" />
        </mxCell>
        <mxCell id="w34_SWaQO84K7jkopNHR-90" value="language_name" style="rounded=0;whiteSpace=wrap;html=1;fontFamily=Courier New;labelBackgroundColor=none;fillColor=#dae8fc;strokeColor=#6c8ebf;" parent="1" vertex="1">
          <mxGeometry x="180" y="1890" width="120" height="60" as="geometry" />
        </mxCell>
        <mxCell id="w34_SWaQO84K7jkopNHR-92" value="&lt;h1&gt;BINDING TABLE&lt;/h1&gt;" style="text;html=1;strokeColor=none;fillColor=none;spacing=5;spacingTop=-20;whiteSpace=wrap;overflow=hidden;rounded=0;fontFamily=Courier New;labelBackgroundColor=none;" parent="1" vertex="1">
          <mxGeometry x="60" y="2000" width="200" height="40" as="geometry" />
        </mxCell>
        <mxCell id="w34_SWaQO84K7jkopNHR-93" value="binding_id" style="rounded=0;whiteSpace=wrap;html=1;fontStyle=5;fontFamily=Courier New;labelBackgroundColor=none;fillColor=#f8cecc;strokeColor=#b85450;" parent="1" vertex="1">
          <mxGeometry x="60" y="2080" width="120" height="60" as="geometry" />
        </mxCell>
        <mxCell id="w34_SWaQO84K7jkopNHR-94" value="binding_type" style="rounded=0;whiteSpace=wrap;html=1;fontFamily=Courier New;labelBackgroundColor=none;fillColor=#dae8fc;strokeColor=#6c8ebf;" parent="1" vertex="1">
          <mxGeometry x="180" y="2080" width="120" height="60" as="geometry" />
        </mxCell>
        <mxCell id="w34_SWaQO84K7jkopNHR-95" value="&lt;h1&gt;BOOK TABLE&lt;/h1&gt;" style="text;html=1;strokeColor=none;fillColor=none;spacing=5;spacingTop=-20;whiteSpace=wrap;overflow=hidden;rounded=0;fontFamily=Courier New;labelBackgroundColor=none;" parent="1" vertex="1">
          <mxGeometry x="60" y="2190" width="190" height="40" as="geometry" />
        </mxCell>
        <mxCell id="w34_SWaQO84K7jkopNHR-96" value="&lt;b&gt;&lt;u&gt;book_ISBN&lt;/u&gt;&lt;/b&gt;" style="rounded=0;whiteSpace=wrap;html=1;fontFamily=Courier New;labelBackgroundColor=none;fillColor=#f8cecc;strokeColor=#b85450;" parent="1" vertex="1">
          <mxGeometry x="60" y="2280" width="120" height="60" as="geometry" />
        </mxCell>
        <mxCell id="w34_SWaQO84K7jkopNHR-97" value="book_title" style="rounded=0;whiteSpace=wrap;html=1;fontFamily=Courier New;labelBackgroundColor=none;fillColor=#dae8fc;strokeColor=#6c8ebf;" parent="1" vertex="1">
          <mxGeometry x="180" y="2280" width="120" height="60" as="geometry" />
        </mxCell>
        <mxCell id="w34_SWaQO84K7jkopNHR-98" value="edition" style="rounded=0;whiteSpace=wrap;html=1;fontFamily=Courier New;labelBackgroundColor=none;fillColor=#dae8fc;strokeColor=#6c8ebf;" parent="1" vertex="1">
          <mxGeometry x="300" y="2280" width="120" height="60" as="geometry" />
        </mxCell>
        <mxCell id="w34_SWaQO84K7jkopNHR-99" value="price" style="rounded=0;whiteSpace=wrap;html=1;fontFamily=Courier New;labelBackgroundColor=none;fillColor=#dae8fc;strokeColor=#6c8ebf;" parent="1" vertex="1">
          <mxGeometry x="420" y="2280" width="120" height="60" as="geometry" />
        </mxCell>
        <mxCell id="w34_SWaQO84K7jkopNHR-100" value="E.O.Q" style="rounded=0;whiteSpace=wrap;html=1;fontFamily=Courier New;labelBackgroundColor=none;fillColor=#dae8fc;strokeColor=#6c8ebf;" parent="1" vertex="1">
          <mxGeometry x="540" y="2280" width="120" height="60" as="geometry" />
        </mxCell>
        <mxCell id="w34_SWaQO84K7jkopNHR-148" style="edgeStyle=orthogonalEdgeStyle;rounded=0;orthogonalLoop=1;jettySize=auto;html=1;exitX=0.5;exitY=1;exitDx=0;exitDy=0;entryX=0;entryY=0.5;entryDx=0;entryDy=0;fontFamily=Courier New;labelBackgroundColor=none;fontColor=default;" parent="1" source="w34_SWaQO84K7jkopNHR-101" target="w34_SWaQO84K7jkopNHR-80" edge="1">
          <mxGeometry relative="1" as="geometry">
            <mxPoint x="10" y="1580" as="targetPoint" />
          </mxGeometry>
        </mxCell>
        <mxCell id="w34_SWaQO84K7jkopNHR-101" value="author_id" style="rounded=0;whiteSpace=wrap;html=1;fontFamily=Courier New;labelBackgroundColor=none;fillColor=#dae8fc;strokeColor=#6c8ebf;" parent="1" vertex="1">
          <mxGeometry x="660" y="2280" width="120" height="60" as="geometry" />
        </mxCell>
        <mxCell id="w34_SWaQO84K7jkopNHR-127" style="edgeStyle=orthogonalEdgeStyle;rounded=0;orthogonalLoop=1;jettySize=auto;html=1;exitX=0.5;exitY=1;exitDx=0;exitDy=0;entryX=0;entryY=0.5;entryDx=0;entryDy=0;fontFamily=Courier New;labelBackgroundColor=none;fontColor=default;" parent="1" source="w34_SWaQO84K7jkopNHR-102" target="w34_SWaQO84K7jkopNHR-123" edge="1">
          <mxGeometry relative="1" as="geometry">
            <Array as="points">
              <mxPoint x="840" y="2380" />
              <mxPoint x="40" y="2380" />
              <mxPoint x="40" y="2500" />
            </Array>
          </mxGeometry>
        </mxCell>
        <mxCell id="w34_SWaQO84K7jkopNHR-102" value="publisher_id" style="rounded=0;whiteSpace=wrap;html=1;fontFamily=Courier New;labelBackgroundColor=none;fillColor=#dae8fc;strokeColor=#6c8ebf;" parent="1" vertex="1">
          <mxGeometry x="780" y="2280" width="120" height="60" as="geometry" />
        </mxCell>
        <mxCell id="w34_SWaQO84K7jkopNHR-104" value="&lt;h1&gt;BOOK_CATEGORY TABLE&lt;/h1&gt;" style="text;html=1;strokeColor=none;fillColor=none;spacing=5;spacingTop=-20;whiteSpace=wrap;overflow=hidden;rounded=0;fontFamily=Courier New;labelBackgroundColor=none;" parent="1" vertex="1">
          <mxGeometry x="530" y="1650" width="330" height="40" as="geometry" />
        </mxCell>
        <mxCell id="w34_SWaQO84K7jkopNHR-107" value="" style="edgeStyle=orthogonalEdgeStyle;rounded=0;orthogonalLoop=1;jettySize=auto;html=1;entryX=0.5;entryY=1;entryDx=0;entryDy=0;fontFamily=Courier New;labelBackgroundColor=none;fontColor=default;" parent="1" source="w34_SWaQO84K7jkopNHR-105" target="w34_SWaQO84K7jkopNHR-84" edge="1">
          <mxGeometry relative="1" as="geometry">
            <mxPoint x="109.03031782670455" y="1800" as="targetPoint" />
            <Array as="points">
              <mxPoint x="580" y="1710" />
              <mxPoint x="460" y="1710" />
              <mxPoint x="460" y="1800" />
              <mxPoint x="120" y="1800" />
            </Array>
          </mxGeometry>
        </mxCell>
        <mxCell id="w34_SWaQO84K7jkopNHR-105" value="category_id" style="rounded=0;whiteSpace=wrap;html=1;fontStyle=5;fontFamily=Courier New;labelBackgroundColor=none;fillColor=#f8cecc;strokeColor=#b85450;" parent="1" vertex="1">
          <mxGeometry x="520" y="1720" width="120" height="60" as="geometry" />
        </mxCell>
        <mxCell id="w34_SWaQO84K7jkopNHR-106" value="book_ISBN" style="rounded=0;whiteSpace=wrap;html=1;fontStyle=5;fontFamily=Courier New;labelBackgroundColor=none;fillColor=#f8cecc;strokeColor=#b85450;" parent="1" vertex="1">
          <mxGeometry x="640" y="1720" width="120" height="60" as="geometry" />
        </mxCell>
        <mxCell id="w34_SWaQO84K7jkopNHR-108" value="&lt;h1&gt;BOOK_LANGUAGE TABLE&lt;/h1&gt;" style="text;html=1;strokeColor=none;fillColor=none;spacing=5;spacingTop=-20;whiteSpace=wrap;overflow=hidden;rounded=0;fontFamily=Courier New;labelBackgroundColor=none;" parent="1" vertex="1">
          <mxGeometry x="540" y="1820" width="320" height="40" as="geometry" />
        </mxCell>
        <mxCell id="w34_SWaQO84K7jkopNHR-111" value="" style="edgeStyle=orthogonalEdgeStyle;rounded=0;orthogonalLoop=1;jettySize=auto;html=1;entryX=0.5;entryY=1;entryDx=0;entryDy=0;fontFamily=Courier New;labelBackgroundColor=none;fontColor=default;" parent="1" source="w34_SWaQO84K7jkopNHR-109" target="w34_SWaQO84K7jkopNHR-89" edge="1">
          <mxGeometry relative="1" as="geometry">
            <mxPoint x="100" y="1980" as="targetPoint" />
            <Array as="points">
              <mxPoint x="580" y="1880" />
              <mxPoint x="470" y="1880" />
              <mxPoint x="470" y="1980" />
              <mxPoint x="120" y="1980" />
            </Array>
          </mxGeometry>
        </mxCell>
        <mxCell id="w34_SWaQO84K7jkopNHR-109" value="language_id" style="rounded=0;whiteSpace=wrap;html=1;fontStyle=5;fontFamily=Courier New;labelBackgroundColor=none;fillColor=#f8cecc;strokeColor=#b85450;" parent="1" vertex="1">
          <mxGeometry x="520" y="1890" width="120" height="60" as="geometry" />
        </mxCell>
        <mxCell id="w34_SWaQO84K7jkopNHR-110" value="book_ISBN" style="rounded=0;whiteSpace=wrap;html=1;fontStyle=5;fontFamily=Courier New;labelBackgroundColor=none;fillColor=#f8cecc;strokeColor=#b85450;" parent="1" vertex="1">
          <mxGeometry x="640" y="1890" width="120" height="60" as="geometry" />
        </mxCell>
        <mxCell id="w34_SWaQO84K7jkopNHR-112" value="&lt;h1&gt;BOOK_BINDING TABLE&lt;/h1&gt;" style="text;html=1;strokeColor=none;fillColor=none;spacing=5;spacingTop=-20;whiteSpace=wrap;overflow=hidden;rounded=0;fontFamily=Courier New;labelBackgroundColor=none;" parent="1" vertex="1">
          <mxGeometry x="540" y="2000" width="350" height="40" as="geometry" />
        </mxCell>
        <mxCell id="w34_SWaQO84K7jkopNHR-115" value="" style="edgeStyle=orthogonalEdgeStyle;rounded=0;orthogonalLoop=1;jettySize=auto;html=1;entryX=0.5;entryY=1;entryDx=0;entryDy=0;fontFamily=Courier New;labelBackgroundColor=none;fontColor=default;" parent="1" source="w34_SWaQO84K7jkopNHR-113" target="w34_SWaQO84K7jkopNHR-93" edge="1">
          <mxGeometry relative="1" as="geometry">
            <mxPoint x="140" y="2160" as="targetPoint" />
            <Array as="points">
              <mxPoint x="580" y="2070" />
              <mxPoint x="470" y="2070" />
              <mxPoint x="470" y="2160" />
              <mxPoint x="120" y="2160" />
            </Array>
          </mxGeometry>
        </mxCell>
        <mxCell id="w34_SWaQO84K7jkopNHR-113" value="binding_id" style="rounded=0;whiteSpace=wrap;html=1;fontStyle=5;fontFamily=Courier New;labelBackgroundColor=none;fillColor=#f8cecc;strokeColor=#b85450;" parent="1" vertex="1">
          <mxGeometry x="520" y="2080" width="120" height="60" as="geometry" />
        </mxCell>
        <mxCell id="w34_SWaQO84K7jkopNHR-114" value="book_ISBN" style="rounded=0;whiteSpace=wrap;html=1;fontStyle=5;fontFamily=Courier New;labelBackgroundColor=none;fillColor=#f8cecc;strokeColor=#b85450;" parent="1" vertex="1">
          <mxGeometry x="640" y="2080" width="120" height="60" as="geometry" />
        </mxCell>
        <mxCell id="w34_SWaQO84K7jkopNHR-119" value="" style="edgeStyle=segmentEdgeStyle;endArrow=classic;html=1;curved=0;rounded=0;endSize=8;startSize=8;exitX=0.5;exitY=1;exitDx=0;exitDy=0;entryX=0.5;entryY=0;entryDx=0;entryDy=0;fontFamily=Courier New;labelBackgroundColor=none;fontColor=default;" parent="1" source="w34_SWaQO84K7jkopNHR-106" target="w34_SWaQO84K7jkopNHR-96" edge="1">
          <mxGeometry width="50" height="50" relative="1" as="geometry">
            <mxPoint x="160" y="2060" as="sourcePoint" />
            <mxPoint x="370" y="2250" as="targetPoint" />
            <Array as="points">
              <mxPoint x="700" y="1810" />
              <mxPoint x="430" y="1810" />
              <mxPoint x="430" y="2260" />
              <mxPoint x="120" y="2260" />
            </Array>
          </mxGeometry>
        </mxCell>
        <mxCell id="w34_SWaQO84K7jkopNHR-120" value="" style="edgeStyle=segmentEdgeStyle;endArrow=classic;html=1;curved=0;rounded=0;endSize=8;startSize=8;exitX=0.5;exitY=1;exitDx=0;exitDy=0;entryX=0.25;entryY=0;entryDx=0;entryDy=0;fontFamily=Courier New;labelBackgroundColor=none;fontColor=default;" parent="1" source="w34_SWaQO84K7jkopNHR-110" target="w34_SWaQO84K7jkopNHR-96" edge="1">
          <mxGeometry width="50" height="50" relative="1" as="geometry">
            <mxPoint x="380" y="2080" as="sourcePoint" />
            <mxPoint x="430" y="2240" as="targetPoint" />
            <Array as="points">
              <mxPoint x="700" y="1990" />
              <mxPoint x="440" y="1990" />
              <mxPoint x="440" y="2240" />
              <mxPoint x="90" y="2240" />
            </Array>
          </mxGeometry>
        </mxCell>
        <mxCell id="w34_SWaQO84K7jkopNHR-121" value="" style="edgeStyle=segmentEdgeStyle;endArrow=classic;html=1;curved=0;rounded=0;endSize=8;startSize=8;exitX=0.5;exitY=1;exitDx=0;exitDy=0;entryX=0.75;entryY=0;entryDx=0;entryDy=0;fontFamily=Courier New;labelBackgroundColor=none;fontColor=default;" parent="1" source="w34_SWaQO84K7jkopNHR-114" target="w34_SWaQO84K7jkopNHR-96" edge="1">
          <mxGeometry width="50" height="50" relative="1" as="geometry">
            <mxPoint x="420" y="2120" as="sourcePoint" />
            <mxPoint x="470" y="2070" as="targetPoint" />
            <Array as="points">
              <mxPoint x="700" y="2230" />
              <mxPoint x="150" y="2230" />
            </Array>
          </mxGeometry>
        </mxCell>
        <mxCell id="w34_SWaQO84K7jkopNHR-122" value="&lt;h1&gt;PUBLISHER TABLE&lt;/h1&gt;" style="text;html=1;strokeColor=none;fillColor=none;spacing=5;spacingTop=-20;whiteSpace=wrap;overflow=hidden;rounded=0;fontFamily=Courier New;labelBackgroundColor=none;" parent="1" vertex="1">
          <mxGeometry x="65" y="2390" width="305" height="40" as="geometry" />
        </mxCell>
        <mxCell id="w34_SWaQO84K7jkopNHR-123" value="&lt;b&gt;&lt;u&gt;publisher_id&lt;/u&gt;&lt;/b&gt;" style="rounded=0;whiteSpace=wrap;html=1;fontFamily=Courier New;labelBackgroundColor=none;fillColor=#f8cecc;strokeColor=#b85450;" parent="1" vertex="1">
          <mxGeometry x="60" y="2470" width="120" height="60" as="geometry" />
        </mxCell>
        <mxCell id="w34_SWaQO84K7jkopNHR-124" value="publisher_name" style="rounded=0;whiteSpace=wrap;html=1;fontFamily=Courier New;labelBackgroundColor=none;fillColor=#dae8fc;strokeColor=#6c8ebf;" parent="1" vertex="1">
          <mxGeometry x="180" y="2470" width="120" height="60" as="geometry" />
        </mxCell>
        <mxCell id="w34_SWaQO84K7jkopNHR-125" value="email_address" style="rounded=0;whiteSpace=wrap;html=1;fontFamily=Courier New;labelBackgroundColor=none;fillColor=#dae8fc;strokeColor=#6c8ebf;" parent="1" vertex="1">
          <mxGeometry x="300" y="2470" width="120" height="60" as="geometry" />
        </mxCell>
        <mxCell id="w34_SWaQO84K7jkopNHR-126" value="website" style="rounded=0;whiteSpace=wrap;html=1;fontFamily=Courier New;labelBackgroundColor=none;fillColor=#dae8fc;strokeColor=#6c8ebf;" parent="1" vertex="1">
          <mxGeometry x="420" y="2470" width="120" height="60" as="geometry" />
        </mxCell>
        <mxCell id="w34_SWaQO84K7jkopNHR-128" value="&lt;h1&gt;SUPPLIES_TO TABLE&lt;/h1&gt;" style="text;html=1;strokeColor=none;fillColor=none;spacing=5;spacingTop=-20;whiteSpace=wrap;overflow=hidden;rounded=0;fontFamily=Courier New;labelBackgroundColor=none;" parent="1" vertex="1">
          <mxGeometry x="60" y="2570" width="350" height="40" as="geometry" />
        </mxCell>
        <mxCell id="w34_SWaQO84K7jkopNHR-133" style="edgeStyle=orthogonalEdgeStyle;rounded=0;orthogonalLoop=1;jettySize=auto;html=1;exitX=0;exitY=0.5;exitDx=0;exitDy=0;entryX=0;entryY=0.75;entryDx=0;entryDy=0;fontFamily=Courier New;labelBackgroundColor=none;fontColor=default;" parent="1" source="w34_SWaQO84K7jkopNHR-129" target="w34_SWaQO84K7jkopNHR-123" edge="1">
          <mxGeometry relative="1" as="geometry">
            <mxPoint x="30" y="2520" as="targetPoint" />
          </mxGeometry>
        </mxCell>
        <mxCell id="w34_SWaQO84K7jkopNHR-129" value="publisher_id" style="rounded=0;whiteSpace=wrap;html=1;fontStyle=5;fontFamily=Courier New;labelBackgroundColor=none;fillColor=#f8cecc;strokeColor=#b85450;" parent="1" vertex="1">
          <mxGeometry x="60" y="2640" width="120" height="60" as="geometry" />
        </mxCell>
        <mxCell id="w34_SWaQO84K7jkopNHR-140" style="edgeStyle=orthogonalEdgeStyle;rounded=0;orthogonalLoop=1;jettySize=auto;html=1;exitX=0.5;exitY=1;exitDx=0;exitDy=0;entryX=0;entryY=0.5;entryDx=0;entryDy=0;fontFamily=Courier New;labelBackgroundColor=none;fontColor=default;" parent="1" source="w34_SWaQO84K7jkopNHR-130" target="w34_SWaQO84K7jkopNHR-135" edge="1">
          <mxGeometry relative="1" as="geometry">
            <Array as="points">
              <mxPoint x="240" y="2730" />
              <mxPoint x="40" y="2730" />
              <mxPoint x="40" y="2840" />
            </Array>
          </mxGeometry>
        </mxCell>
        <mxCell id="w34_SWaQO84K7jkopNHR-130" value="supplier_id" style="rounded=0;whiteSpace=wrap;html=1;fontStyle=5;fontFamily=Courier New;labelBackgroundColor=none;fillColor=#f8cecc;strokeColor=#b85450;" parent="1" vertex="1">
          <mxGeometry x="180" y="2640" width="120" height="60" as="geometry" />
        </mxCell>
        <mxCell id="w34_SWaQO84K7jkopNHR-131" value="book_ISBN" style="rounded=0;whiteSpace=wrap;html=1;fontFamily=Courier New;labelBackgroundColor=none;fillColor=#dae8fc;strokeColor=#6c8ebf;" parent="1" vertex="1">
          <mxGeometry x="300" y="2640" width="120" height="60" as="geometry" />
        </mxCell>
        <mxCell id="w34_SWaQO84K7jkopNHR-132" value="amount" style="rounded=0;whiteSpace=wrap;html=1;fontFamily=Courier New;labelBackgroundColor=none;fillColor=#dae8fc;strokeColor=#6c8ebf;" parent="1" vertex="1">
          <mxGeometry x="420" y="2640" width="120" height="60" as="geometry" />
        </mxCell>
        <mxCell id="w34_SWaQO84K7jkopNHR-134" value="&lt;h1&gt;SUPPLIER TABLE&lt;/h1&gt;" style="text;html=1;strokeColor=none;fillColor=none;spacing=5;spacingTop=-20;whiteSpace=wrap;overflow=hidden;rounded=0;fontFamily=Courier New;labelBackgroundColor=none;" parent="1" vertex="1">
          <mxGeometry x="60" y="2740" width="220" height="40" as="geometry" />
        </mxCell>
        <mxCell id="w34_SWaQO84K7jkopNHR-135" value="supplier_id" style="rounded=0;whiteSpace=wrap;html=1;fontStyle=5;fontFamily=Courier New;labelBackgroundColor=none;fillColor=#f8cecc;strokeColor=#b85450;" parent="1" vertex="1">
          <mxGeometry x="60" y="2810" width="120" height="60" as="geometry" />
        </mxCell>
        <mxCell id="w34_SWaQO84K7jkopNHR-136" value="email_address" style="rounded=0;whiteSpace=wrap;html=1;fontFamily=Courier New;labelBackgroundColor=none;fillColor=#dae8fc;strokeColor=#6c8ebf;" parent="1" vertex="1">
          <mxGeometry x="180" y="2810" width="120" height="60" as="geometry" />
        </mxCell>
        <mxCell id="w34_SWaQO84K7jkopNHR-137" value="supplier_name" style="rounded=0;whiteSpace=wrap;html=1;fontFamily=Courier New;labelBackgroundColor=none;fillColor=#dae8fc;strokeColor=#6c8ebf;" parent="1" vertex="1">
          <mxGeometry x="300" y="2810" width="120" height="60" as="geometry" />
        </mxCell>
        <mxCell id="w34_SWaQO84K7jkopNHR-139" value="contact_no" style="rounded=0;whiteSpace=wrap;html=1;fontFamily=Courier New;labelBackgroundColor=none;fillColor=#dae8fc;strokeColor=#6c8ebf;" parent="1" vertex="1">
          <mxGeometry x="420" y="2810" width="120" height="60" as="geometry" />
        </mxCell>
        <mxCell id="w34_SWaQO84K7jkopNHR-141" value="&lt;h1&gt;PROVIDES_BOOKS TABLE&lt;/h1&gt;" style="text;html=1;strokeColor=none;fillColor=none;spacing=5;spacingTop=-20;whiteSpace=wrap;overflow=hidden;rounded=0;fontFamily=Courier New;labelBackgroundColor=none;" parent="1" vertex="1">
          <mxGeometry x="60" y="2910" width="340" height="40" as="geometry" />
        </mxCell>
        <mxCell id="w34_SWaQO84K7jkopNHR-147" style="edgeStyle=orthogonalEdgeStyle;rounded=0;orthogonalLoop=1;jettySize=auto;html=1;exitX=0;exitY=0.5;exitDx=0;exitDy=0;entryX=0;entryY=0.75;entryDx=0;entryDy=0;fontFamily=Courier New;labelBackgroundColor=none;fontColor=default;" parent="1" source="w34_SWaQO84K7jkopNHR-142" target="w34_SWaQO84K7jkopNHR-135" edge="1">
          <mxGeometry relative="1" as="geometry" />
        </mxCell>
        <mxCell id="w34_SWaQO84K7jkopNHR-142" value="supplier_id" style="rounded=0;whiteSpace=wrap;html=1;fontStyle=5;fontFamily=Courier New;labelBackgroundColor=none;fillColor=#f8cecc;strokeColor=#b85450;" parent="1" vertex="1">
          <mxGeometry x="60" y="2990" width="120" height="60" as="geometry" />
        </mxCell>
        <mxCell id="w34_SWaQO84K7jkopNHR-159" style="edgeStyle=orthogonalEdgeStyle;rounded=0;orthogonalLoop=1;jettySize=auto;html=1;exitX=0.5;exitY=1;exitDx=0;exitDy=0;entryX=-0.003;entryY=0.623;entryDx=0;entryDy=0;entryPerimeter=0;fontFamily=Courier New;labelBackgroundColor=none;fontColor=default;" parent="1" source="w34_SWaQO84K7jkopNHR-143" target="w34_SWaQO84K7jkopNHR-151" edge="1">
          <mxGeometry relative="1" as="geometry">
            <Array as="points">
              <mxPoint x="240" y="3070" />
              <mxPoint x="40" y="3070" />
              <mxPoint x="40" y="3197" />
            </Array>
          </mxGeometry>
        </mxCell>
        <mxCell id="w34_SWaQO84K7jkopNHR-143" value="warehouse_id" style="rounded=0;whiteSpace=wrap;html=1;fontStyle=5;fontFamily=Courier New;labelBackgroundColor=none;fillColor=#f8cecc;strokeColor=#b85450;" parent="1" vertex="1">
          <mxGeometry x="180" y="2990" width="120" height="60" as="geometry" />
        </mxCell>
        <mxCell id="w34_SWaQO84K7jkopNHR-145" value="book_ISBN" style="rounded=0;whiteSpace=wrap;html=1;fontFamily=Courier New;labelBackgroundColor=none;" parent="1" vertex="1">
          <mxGeometry x="300" y="2990" width="120" height="60" as="geometry" />
        </mxCell>
        <mxCell id="w34_SWaQO84K7jkopNHR-146" value="amount" style="rounded=0;whiteSpace=wrap;html=1;fontFamily=Courier New;labelBackgroundColor=none;" parent="1" vertex="1">
          <mxGeometry x="420" y="2990" width="120" height="60" as="geometry" />
        </mxCell>
        <mxCell id="w34_SWaQO84K7jkopNHR-150" value="&lt;h1&gt;WAREHOUSE TABLE&lt;/h1&gt;" style="text;html=1;strokeColor=none;fillColor=none;spacing=5;spacingTop=-20;whiteSpace=wrap;overflow=hidden;rounded=0;fontFamily=Courier New;labelBackgroundColor=none;" parent="1" vertex="1">
          <mxGeometry x="60" y="3090" width="310" height="40" as="geometry" />
        </mxCell>
        <mxCell id="w34_SWaQO84K7jkopNHR-151" value="warehouse_id" style="rounded=0;whiteSpace=wrap;html=1;fontStyle=5;fontFamily=Courier New;labelBackgroundColor=none;fillColor=#f8cecc;strokeColor=#b85450;" parent="1" vertex="1">
          <mxGeometry x="60" y="3160" width="120" height="60" as="geometry" />
        </mxCell>
        <mxCell id="w34_SWaQO84K7jkopNHR-152" value="warehouse_name" style="rounded=0;whiteSpace=wrap;html=1;fontFamily=Courier New;labelBackgroundColor=none;fillColor=#dae8fc;strokeColor=#6c8ebf;" parent="1" vertex="1">
          <mxGeometry x="180" y="3160" width="120" height="60" as="geometry" />
        </mxCell>
        <mxCell id="w34_SWaQO84K7jkopNHR-153" value="street" style="rounded=0;whiteSpace=wrap;html=1;fontFamily=Courier New;labelBackgroundColor=none;fillColor=#dae8fc;strokeColor=#6c8ebf;" parent="1" vertex="1">
          <mxGeometry x="300" y="3160" width="120" height="60" as="geometry" />
        </mxCell>
        <mxCell id="w34_SWaQO84K7jkopNHR-154" value="city" style="rounded=0;whiteSpace=wrap;html=1;fontFamily=Courier New;labelBackgroundColor=none;fillColor=#dae8fc;strokeColor=#6c8ebf;" parent="1" vertex="1">
          <mxGeometry x="420" y="3160" width="120" height="60" as="geometry" />
        </mxCell>
        <mxCell id="w34_SWaQO84K7jkopNHR-155" value="state" style="rounded=0;whiteSpace=wrap;html=1;fontFamily=Courier New;labelBackgroundColor=none;fillColor=#dae8fc;strokeColor=#6c8ebf;" parent="1" vertex="1">
          <mxGeometry x="540" y="3160" width="120" height="60" as="geometry" />
        </mxCell>
        <mxCell id="w34_SWaQO84K7jkopNHR-156" value="street" style="rounded=0;whiteSpace=wrap;html=1;fontFamily=Courier New;labelBackgroundColor=none;fillColor=#dae8fc;strokeColor=#6c8ebf;" parent="1" vertex="1">
          <mxGeometry x="540" y="2810" width="120" height="60" as="geometry" />
        </mxCell>
        <mxCell id="w34_SWaQO84K7jkopNHR-157" value="city" style="rounded=0;whiteSpace=wrap;html=1;fontFamily=Courier New;labelBackgroundColor=none;fillColor=#dae8fc;strokeColor=#6c8ebf;" parent="1" vertex="1">
          <mxGeometry x="660" y="2810" width="120" height="60" as="geometry" />
        </mxCell>
        <mxCell id="w34_SWaQO84K7jkopNHR-158" value="state" style="rounded=0;whiteSpace=wrap;html=1;fontFamily=Courier New;labelBackgroundColor=none;fillColor=#dae8fc;strokeColor=#6c8ebf;" parent="1" vertex="1">
          <mxGeometry x="780" y="2810" width="120" height="60" as="geometry" />
        </mxCell>
        <mxCell id="w34_SWaQO84K7jkopNHR-160" value="&lt;h1&gt;USER_INTERACTION TABLE&lt;/h1&gt;" style="text;html=1;strokeColor=none;fillColor=none;spacing=5;spacingTop=-20;whiteSpace=wrap;overflow=hidden;rounded=0;fontFamily=Courier New;labelBackgroundColor=none;" parent="1" vertex="1">
          <mxGeometry x="980" y="810" width="440" height="40" as="geometry" />
        </mxCell>
        <mxCell id="w34_SWaQO84K7jkopNHR-204" style="edgeStyle=orthogonalEdgeStyle;rounded=0;orthogonalLoop=1;jettySize=auto;html=1;exitX=0;exitY=0.5;exitDx=0;exitDy=0;entryX=0.675;entryY=1.042;entryDx=0;entryDy=0;entryPerimeter=0;labelBackgroundColor=none;fontColor=default;" parent="1" source="w34_SWaQO84K7jkopNHR-161" target="w34_SWaQO84K7jkopNHR-38" edge="1">
          <mxGeometry relative="1" as="geometry">
            <Array as="points">
              <mxPoint x="890" y="900" />
              <mxPoint x="890" y="650" />
              <mxPoint x="141" y="650" />
            </Array>
          </mxGeometry>
        </mxCell>
        <mxCell id="w34_SWaQO84K7jkopNHR-161" value="username" style="rounded=0;whiteSpace=wrap;html=1;fontStyle=5;fontFamily=Courier New;labelBackgroundColor=none;fillColor=#f8cecc;strokeColor=#b85450;" parent="1" vertex="1">
          <mxGeometry x="980" y="870" width="120" height="60" as="geometry" />
        </mxCell>
        <mxCell id="w34_SWaQO84K7jkopNHR-168" style="edgeStyle=orthogonalEdgeStyle;rounded=0;orthogonalLoop=1;jettySize=auto;html=1;exitX=0.5;exitY=1;exitDx=0;exitDy=0;entryX=0.862;entryY=-0.018;entryDx=0;entryDy=0;entryPerimeter=0;fontFamily=Courier New;labelBackgroundColor=none;fontColor=default;" parent="1" source="w34_SWaQO84K7jkopNHR-162" target="w34_SWaQO84K7jkopNHR-96" edge="1">
          <mxGeometry relative="1" as="geometry">
            <mxPoint x="820" y="1130" as="targetPoint" />
            <Array as="points">
              <mxPoint x="1200" y="960" />
              <mxPoint x="930" y="960" />
              <mxPoint x="930" y="2270" />
              <mxPoint x="163" y="2270" />
            </Array>
          </mxGeometry>
        </mxCell>
        <mxCell id="w34_SWaQO84K7jkopNHR-162" value="book_ISBN" style="rounded=0;whiteSpace=wrap;html=1;fontStyle=5;fontFamily=Courier New;labelBackgroundColor=none;fillColor=#f8cecc;strokeColor=#b85450;" parent="1" vertex="1">
          <mxGeometry x="1100" y="870" width="120" height="60" as="geometry" />
        </mxCell>
        <mxCell id="w34_SWaQO84K7jkopNHR-163" value="rating" style="rounded=0;whiteSpace=wrap;html=1;fontFamily=Courier New;labelBackgroundColor=none;fillColor=#dae8fc;strokeColor=#6c8ebf;" parent="1" vertex="1">
          <mxGeometry x="1220" y="870" width="120" height="60" as="geometry" />
        </mxCell>
        <mxCell id="w34_SWaQO84K7jkopNHR-164" value="upvote" style="rounded=0;whiteSpace=wrap;html=1;fontFamily=Courier New;labelBackgroundColor=none;fillColor=#dae8fc;strokeColor=#6c8ebf;" parent="1" vertex="1">
          <mxGeometry x="1340" y="870" width="120" height="60" as="geometry" />
        </mxCell>
        <mxCell id="w34_SWaQO84K7jkopNHR-166" value="downvote" style="rounded=0;whiteSpace=wrap;html=1;fontFamily=Courier New;labelBackgroundColor=none;fillColor=#dae8fc;strokeColor=#6c8ebf;" parent="1" vertex="1">
          <mxGeometry x="1460" y="870" width="120" height="60" as="geometry" />
        </mxCell>
        <mxCell id="w34_SWaQO84K7jkopNHR-169" value="&lt;h1&gt;FAVOURITES TABLE&lt;/h1&gt;" style="text;html=1;strokeColor=none;fillColor=none;spacing=5;spacingTop=-20;whiteSpace=wrap;overflow=hidden;rounded=0;fontFamily=Courier New;labelBackgroundColor=none;" parent="1" vertex="1">
          <mxGeometry x="960" y="1000" width="360" height="40" as="geometry" />
        </mxCell>
        <mxCell id="w34_SWaQO84K7jkopNHR-170" value="favourite_id" style="rounded=0;whiteSpace=wrap;html=1;fontStyle=5;fontFamily=Courier New;labelBackgroundColor=none;fillColor=#f8cecc;strokeColor=#b85450;" parent="1" vertex="1">
          <mxGeometry x="960" y="1070" width="120" height="60" as="geometry" />
        </mxCell>
        <mxCell id="w34_SWaQO84K7jkopNHR-171" value="reason" style="rounded=0;whiteSpace=wrap;html=1;fontFamily=Courier New;labelBackgroundColor=none;fillColor=#dae8fc;strokeColor=#6c8ebf;" parent="1" vertex="1">
          <mxGeometry x="1080" y="1070" width="120" height="60" as="geometry" />
        </mxCell>
        <mxCell id="w34_SWaQO84K7jkopNHR-172" value="&lt;h1&gt;USER_FAVOURITE TABLE&lt;/h1&gt;" style="text;html=1;strokeColor=none;fillColor=none;spacing=5;spacingTop=-20;whiteSpace=wrap;overflow=hidden;rounded=0;fontFamily=Courier New;labelBackgroundColor=none;" parent="1" vertex="1">
          <mxGeometry x="1310" y="1000" width="310" height="40" as="geometry" />
        </mxCell>
        <mxCell id="w34_SWaQO84K7jkopNHR-176" style="edgeStyle=orthogonalEdgeStyle;rounded=0;orthogonalLoop=1;jettySize=auto;html=1;exitX=0.5;exitY=0;exitDx=0;exitDy=0;entryX=0.169;entryY=1.024;entryDx=0;entryDy=0;entryPerimeter=0;fontFamily=Courier New;labelBackgroundColor=none;fontColor=default;" parent="1" source="w34_SWaQO84K7jkopNHR-173" target="w34_SWaQO84K7jkopNHR-161" edge="1">
          <mxGeometry relative="1" as="geometry">
            <Array as="points">
              <mxPoint x="1370" y="1060" />
              <mxPoint x="1280" y="1060" />
              <mxPoint x="1280" y="980" />
              <mxPoint x="1000" y="980" />
            </Array>
          </mxGeometry>
        </mxCell>
        <mxCell id="w34_SWaQO84K7jkopNHR-173" value="username" style="rounded=0;whiteSpace=wrap;html=1;fontStyle=5;fontFamily=Courier New;labelBackgroundColor=none;fillColor=#f8cecc;strokeColor=#b85450;" parent="1" vertex="1">
          <mxGeometry x="1310" y="1070" width="120" height="60" as="geometry" />
        </mxCell>
        <mxCell id="w34_SWaQO84K7jkopNHR-177" style="edgeStyle=orthogonalEdgeStyle;rounded=0;orthogonalLoop=1;jettySize=auto;html=1;exitX=0.5;exitY=0;exitDx=0;exitDy=0;entryX=0.621;entryY=1.01;entryDx=0;entryDy=0;entryPerimeter=0;fontFamily=Courier New;labelBackgroundColor=none;fontColor=default;" parent="1" source="w34_SWaQO84K7jkopNHR-174" target="w34_SWaQO84K7jkopNHR-162" edge="1">
          <mxGeometry relative="1" as="geometry">
            <Array as="points">
              <mxPoint x="1490" y="1050" />
              <mxPoint x="1300" y="1050" />
              <mxPoint x="1300" y="1000" />
              <mxPoint x="1174" y="1000" />
            </Array>
          </mxGeometry>
        </mxCell>
        <mxCell id="w34_SWaQO84K7jkopNHR-174" value="book_ISBN" style="rounded=0;whiteSpace=wrap;html=1;fontStyle=5;fontFamily=Courier New;labelBackgroundColor=none;fillColor=#f8cecc;strokeColor=#b85450;" parent="1" vertex="1">
          <mxGeometry x="1430" y="1070" width="120" height="60" as="geometry" />
        </mxCell>
        <mxCell id="w34_SWaQO84K7jkopNHR-178" style="edgeStyle=orthogonalEdgeStyle;rounded=0;orthogonalLoop=1;jettySize=auto;html=1;exitX=0.5;exitY=1;exitDx=0;exitDy=0;entryX=0.398;entryY=0.99;entryDx=0;entryDy=0;entryPerimeter=0;fontFamily=Courier New;labelBackgroundColor=none;fontColor=default;" parent="1" source="w34_SWaQO84K7jkopNHR-175" target="w34_SWaQO84K7jkopNHR-170" edge="1">
          <mxGeometry relative="1" as="geometry" />
        </mxCell>
        <mxCell id="w34_SWaQO84K7jkopNHR-175" value="favourite_id" style="rounded=0;whiteSpace=wrap;html=1;fontStyle=5;fontFamily=Courier New;labelBackgroundColor=none;fillColor=#f8cecc;strokeColor=#b85450;" parent="1" vertex="1">
          <mxGeometry x="1550" y="1070" width="120" height="60" as="geometry" />
        </mxCell>
        <mxCell id="w34_SWaQO84K7jkopNHR-179" value="&lt;h1&gt;COMMENTS TABLE&lt;/h1&gt;" style="text;html=1;strokeColor=none;fillColor=none;spacing=5;spacingTop=-20;whiteSpace=wrap;overflow=hidden;rounded=0;fontFamily=Courier New;labelBackgroundColor=none;" parent="1" vertex="1">
          <mxGeometry x="980" y="630" width="270" height="40" as="geometry" />
        </mxCell>
        <mxCell id="w34_SWaQO84K7jkopNHR-180" value="comment_id" style="rounded=0;whiteSpace=wrap;html=1;fontStyle=5;fontFamily=Courier New;labelBackgroundColor=none;fillColor=#f8cecc;strokeColor=#b85450;" parent="1" vertex="1">
          <mxGeometry x="980" y="710" width="120" height="60" as="geometry" />
        </mxCell>
        <mxCell id="w34_SWaQO84K7jkopNHR-181" value="comment" style="rounded=0;whiteSpace=wrap;html=1;fontFamily=Courier New;labelBackgroundColor=none;fillColor=#dae8fc;strokeColor=#6c8ebf;" parent="1" vertex="1">
          <mxGeometry x="1100" y="710" width="120" height="60" as="geometry" />
        </mxCell>
        <mxCell id="w34_SWaQO84K7jkopNHR-182" value="&lt;h1&gt;USER_COMMENT TABLE&lt;/h1&gt;" style="text;html=1;strokeColor=none;fillColor=none;spacing=5;spacingTop=-20;whiteSpace=wrap;overflow=hidden;rounded=0;fontFamily=Courier New;labelBackgroundColor=none;" parent="1" vertex="1">
          <mxGeometry x="1320" y="630" width="300" height="40" as="geometry" />
        </mxCell>
        <mxCell id="w34_SWaQO84K7jkopNHR-186" style="edgeStyle=orthogonalEdgeStyle;rounded=0;orthogonalLoop=1;jettySize=auto;html=1;exitX=0.5;exitY=1;exitDx=0;exitDy=0;fontFamily=Courier New;labelBackgroundColor=none;fontColor=default;" parent="1" source="w34_SWaQO84K7jkopNHR-183" target="w34_SWaQO84K7jkopNHR-161" edge="1">
          <mxGeometry relative="1" as="geometry">
            <Array as="points">
              <mxPoint x="1370" y="850" />
              <mxPoint x="1040" y="850" />
            </Array>
          </mxGeometry>
        </mxCell>
        <mxCell id="w34_SWaQO84K7jkopNHR-183" value="username" style="rounded=0;whiteSpace=wrap;html=1;fontStyle=5;fontFamily=Courier New;labelBackgroundColor=none;fillColor=#f8cecc;strokeColor=#b85450;" parent="1" vertex="1">
          <mxGeometry x="1310" y="710" width="120" height="60" as="geometry" />
        </mxCell>
        <mxCell id="w34_SWaQO84K7jkopNHR-187" style="edgeStyle=orthogonalEdgeStyle;rounded=0;orthogonalLoop=1;jettySize=auto;html=1;exitX=0.5;exitY=1;exitDx=0;exitDy=0;fontFamily=Courier New;labelBackgroundColor=none;fontColor=default;" parent="1" source="w34_SWaQO84K7jkopNHR-184" target="w34_SWaQO84K7jkopNHR-162" edge="1">
          <mxGeometry relative="1" as="geometry">
            <Array as="points">
              <mxPoint x="1490" y="860" />
              <mxPoint x="1160" y="860" />
            </Array>
          </mxGeometry>
        </mxCell>
        <mxCell id="w34_SWaQO84K7jkopNHR-184" value="book_ISBN" style="rounded=0;whiteSpace=wrap;html=1;fontStyle=5;fontFamily=Courier New;labelBackgroundColor=none;fillColor=#f8cecc;strokeColor=#b85450;" parent="1" vertex="1">
          <mxGeometry x="1430" y="710" width="120" height="60" as="geometry" />
        </mxCell>
        <mxCell id="w34_SWaQO84K7jkopNHR-188" style="edgeStyle=orthogonalEdgeStyle;rounded=0;orthogonalLoop=1;jettySize=auto;html=1;exitX=0.5;exitY=1;exitDx=0;exitDy=0;entryX=0.25;entryY=1;entryDx=0;entryDy=0;fontFamily=Courier New;labelBackgroundColor=none;fontColor=default;" parent="1" source="w34_SWaQO84K7jkopNHR-185" target="w34_SWaQO84K7jkopNHR-180" edge="1">
          <mxGeometry relative="1" as="geometry" />
        </mxCell>
        <mxCell id="w34_SWaQO84K7jkopNHR-185" value="comment_id" style="rounded=0;whiteSpace=wrap;html=1;fontStyle=5;fontFamily=Courier New;labelBackgroundColor=none;fillColor=#f8cecc;strokeColor=#b85450;" parent="1" vertex="1">
          <mxGeometry x="1550" y="710" width="120" height="60" as="geometry" />
        </mxCell>
        <mxCell id="w34_SWaQO84K7jkopNHR-189" value="&lt;h1&gt;WISHLIST TABLE&lt;/h1&gt;" style="text;html=1;strokeColor=none;fillColor=none;spacing=5;spacingTop=-20;whiteSpace=wrap;overflow=hidden;rounded=0;fontFamily=Courier New;labelBackgroundColor=none;" parent="1" vertex="1">
          <mxGeometry x="960" y="1200" width="250" height="40" as="geometry" />
        </mxCell>
        <mxCell id="w34_SWaQO84K7jkopNHR-190" value="wish_id" style="rounded=0;whiteSpace=wrap;html=1;fontFamily=Courier New;labelBackgroundColor=none;fontStyle=5;fillColor=#f8cecc;strokeColor=#b85450;" parent="1" vertex="1">
          <mxGeometry x="960" y="1270" width="120" height="60" as="geometry" />
        </mxCell>
        <mxCell id="w34_SWaQO84K7jkopNHR-191" value="&lt;h1&gt;USER_WISHLIST TABLE&lt;/h1&gt;" style="text;html=1;strokeColor=none;fillColor=none;spacing=5;spacingTop=-20;whiteSpace=wrap;overflow=hidden;rounded=0;fontFamily=Courier New;labelBackgroundColor=none;" parent="1" vertex="1">
          <mxGeometry x="1310" y="1200" width="300" height="40" as="geometry" />
        </mxCell>
        <mxCell id="w34_SWaQO84K7jkopNHR-198" style="edgeStyle=orthogonalEdgeStyle;rounded=0;orthogonalLoop=1;jettySize=auto;html=1;exitX=0.5;exitY=1;exitDx=0;exitDy=0;entryX=0.5;entryY=1;entryDx=0;entryDy=0;fontFamily=Courier New;labelBackgroundColor=none;fontColor=default;" parent="1" source="w34_SWaQO84K7jkopNHR-192" target="w34_SWaQO84K7jkopNHR-161" edge="1">
          <mxGeometry relative="1" as="geometry">
            <Array as="points">
              <mxPoint x="1380" y="1350" />
              <mxPoint x="890" y="1350" />
              <mxPoint x="890" y="950" />
              <mxPoint x="1040" y="950" />
            </Array>
          </mxGeometry>
        </mxCell>
        <mxCell id="w34_SWaQO84K7jkopNHR-192" value="username" style="rounded=0;whiteSpace=wrap;html=1;fontStyle=5;fontFamily=Courier New;labelBackgroundColor=none;fillColor=#f8cecc;strokeColor=#b85450;" parent="1" vertex="1">
          <mxGeometry x="1320" y="1270" width="120" height="60" as="geometry" />
        </mxCell>
        <mxCell id="w34_SWaQO84K7jkopNHR-199" style="edgeStyle=orthogonalEdgeStyle;rounded=0;orthogonalLoop=1;jettySize=auto;html=1;exitX=0.5;exitY=1;exitDx=0;exitDy=0;entryX=0.433;entryY=1.092;entryDx=0;entryDy=0;entryPerimeter=0;fontFamily=Courier New;labelBackgroundColor=none;fontColor=default;" parent="1" source="w34_SWaQO84K7jkopNHR-193" target="w34_SWaQO84K7jkopNHR-162" edge="1">
          <mxGeometry relative="1" as="geometry">
            <Array as="points">
              <mxPoint x="1500" y="1370" />
              <mxPoint x="940" y="1370" />
              <mxPoint x="940" y="990" />
              <mxPoint x="1152" y="990" />
            </Array>
          </mxGeometry>
        </mxCell>
        <mxCell id="w34_SWaQO84K7jkopNHR-193" value="book_ISBN" style="rounded=0;whiteSpace=wrap;html=1;fontStyle=5;fontFamily=Courier New;labelBackgroundColor=none;fillColor=#f8cecc;strokeColor=#b85450;" parent="1" vertex="1">
          <mxGeometry x="1440" y="1270" width="120" height="60" as="geometry" />
        </mxCell>
        <mxCell id="w34_SWaQO84K7jkopNHR-200" style="edgeStyle=orthogonalEdgeStyle;rounded=0;orthogonalLoop=1;jettySize=auto;html=1;exitX=0.5;exitY=1;exitDx=0;exitDy=0;entryX=0.5;entryY=1;entryDx=0;entryDy=0;fontFamily=Courier New;labelBackgroundColor=none;fontColor=default;" parent="1" source="w34_SWaQO84K7jkopNHR-194" target="w34_SWaQO84K7jkopNHR-190" edge="1">
          <mxGeometry relative="1" as="geometry">
            <Array as="points">
              <mxPoint x="1620" y="1390" />
              <mxPoint x="1020" y="1390" />
            </Array>
          </mxGeometry>
        </mxCell>
        <mxCell id="w34_SWaQO84K7jkopNHR-194" value="wish_id" style="rounded=0;whiteSpace=wrap;html=1;fontStyle=5;fontFamily=Courier New;labelBackgroundColor=none;fillColor=#f8cecc;strokeColor=#b85450;" parent="1" vertex="1">
          <mxGeometry x="1560" y="1270" width="120" height="60" as="geometry" />
        </mxCell>
        <mxCell id="w34_SWaQO84K7jkopNHR-205" value="description" style="rounded=0;whiteSpace=wrap;html=1;fontFamily=Courier New;labelBackgroundColor=none;fillColor=#dae8fc;strokeColor=#6c8ebf;" parent="1" vertex="1">
          <mxGeometry x="300" y="1890" width="120" height="60" as="geometry" />
        </mxCell>
        <mxCell id="w34_SWaQO84K7jkopNHR-206" value="description" style="rounded=0;whiteSpace=wrap;html=1;fontFamily=Courier New;labelBackgroundColor=none;fillColor=#dae8fc;strokeColor=#6c8ebf;" parent="1" vertex="1">
          <mxGeometry x="300" y="2080" width="120" height="60" as="geometry" />
        </mxCell>
        <mxCell id="Cy9AdBOT8W9fdo9LY3AT-1" value="quantity_in_stock" style="rounded=0;whiteSpace=wrap;html=1;fontFamily=Courier New;fillColor=#dae8fc;strokeColor=#6c8ebf;" parent="1" vertex="1">
          <mxGeometry x="900" y="2280" width="130" height="60" as="geometry" />
        </mxCell>
        <mxCell id="Cy9AdBOT8W9fdo9LY3AT-3" value="&lt;h1&gt;CONTAINS_BOOKS TABLE&lt;/h1&gt;" style="text;html=1;strokeColor=none;fillColor=none;spacing=5;spacingTop=-20;whiteSpace=wrap;overflow=hidden;rounded=0;fontFamily=Courier New;" parent="1" vertex="1">
          <mxGeometry x="940" y="3090" width="320" height="40" as="geometry" />
        </mxCell>
        <mxCell id="Cy9AdBOT8W9fdo9LY3AT-6" style="edgeStyle=orthogonalEdgeStyle;rounded=0;orthogonalLoop=1;jettySize=auto;html=1;exitX=0.5;exitY=0;exitDx=0;exitDy=0;entryX=0.5;entryY=0;entryDx=0;entryDy=0;" parent="1" source="Cy9AdBOT8W9fdo9LY3AT-4" target="w34_SWaQO84K7jkopNHR-151" edge="1">
          <mxGeometry relative="1" as="geometry" />
        </mxCell>
        <mxCell id="Cy9AdBOT8W9fdo9LY3AT-4" value="warehouse_id" style="rounded=0;whiteSpace=wrap;html=1;fontFamily=Courier New;fontStyle=5;fillColor=#f8cecc;strokeColor=#b85450;" parent="1" vertex="1">
          <mxGeometry x="950" y="3160" width="120" height="60" as="geometry" />
        </mxCell>
        <mxCell id="Cy9AdBOT8W9fdo9LY3AT-10" style="edgeStyle=orthogonalEdgeStyle;rounded=0;orthogonalLoop=1;jettySize=auto;html=1;exitX=0.5;exitY=0;exitDx=0;exitDy=0;entryX=0.5;entryY=0;entryDx=0;entryDy=0;" parent="1" source="Cy9AdBOT8W9fdo9LY3AT-5" target="Cy9AdBOT8W9fdo9LY3AT-8" edge="1">
          <mxGeometry relative="1" as="geometry" />
        </mxCell>
        <mxCell id="Cy9AdBOT8W9fdo9LY3AT-5" value="track_id" style="rounded=0;whiteSpace=wrap;html=1;fontFamily=Courier New;fontStyle=5;fillColor=#f8cecc;strokeColor=#b85450;" parent="1" vertex="1">
          <mxGeometry x="1070" y="3160" width="120" height="60" as="geometry" />
        </mxCell>
        <mxCell id="Cy9AdBOT8W9fdo9LY3AT-7" value="&lt;h1&gt;BOOKS_IN_WAREHOUSE TABLE&lt;/h1&gt;" style="text;html=1;strokeColor=none;fillColor=none;spacing=5;spacingTop=-20;whiteSpace=wrap;overflow=hidden;rounded=0;fontFamily=Courier New;" parent="1" vertex="1">
          <mxGeometry x="1290" y="3090" width="390" height="40" as="geometry" />
        </mxCell>
        <mxCell id="Cy9AdBOT8W9fdo9LY3AT-8" value="&lt;b&gt;&lt;u&gt;track_id&lt;/u&gt;&lt;/b&gt;" style="rounded=0;whiteSpace=wrap;html=1;fontStyle=0;fontFamily=Courier New;fillColor=#f8cecc;strokeColor=#b85450;" parent="1" vertex="1">
          <mxGeometry x="1290" y="3160" width="120" height="60" as="geometry" />
        </mxCell>
        <mxCell id="Cy9AdBOT8W9fdo9LY3AT-9" value="quantity" style="rounded=0;whiteSpace=wrap;html=1;fontFamily=Courier New;fillColor=#dae8fc;strokeColor=#6c8ebf;" parent="1" vertex="1">
          <mxGeometry x="1530" y="3160" width="120" height="60" as="geometry" />
        </mxCell>
        <mxCell id="Cy9AdBOT8W9fdo9LY3AT-11" value="&lt;h1&gt;HAVE_BOOKS TABLE&lt;/h1&gt;" style="text;html=1;strokeColor=none;fillColor=none;spacing=5;spacingTop=-20;whiteSpace=wrap;overflow=hidden;rounded=0;fontFamily=Courier New;" parent="1" vertex="1">
          <mxGeometry x="940" y="2750" width="270" height="40" as="geometry" />
        </mxCell>
        <mxCell id="Cy9AdBOT8W9fdo9LY3AT-14" style="edgeStyle=orthogonalEdgeStyle;rounded=0;orthogonalLoop=1;jettySize=auto;html=1;exitX=0.5;exitY=0;exitDx=0;exitDy=0;entryX=0.5;entryY=0;entryDx=0;entryDy=0;" parent="1" source="Cy9AdBOT8W9fdo9LY3AT-12" target="w34_SWaQO84K7jkopNHR-135" edge="1">
          <mxGeometry relative="1" as="geometry" />
        </mxCell>
        <mxCell id="Cy9AdBOT8W9fdo9LY3AT-12" value="supplier_id" style="rounded=0;whiteSpace=wrap;html=1;fontStyle=5;fontFamily=Courier New;fillColor=#f8cecc;strokeColor=#b85450;" parent="1" vertex="1">
          <mxGeometry x="950" y="2810" width="120" height="60" as="geometry" />
        </mxCell>
        <mxCell id="Cy9AdBOT8W9fdo9LY3AT-13" value="track_id" style="rounded=0;whiteSpace=wrap;html=1;fontStyle=5;fontFamily=Courier New;fillColor=#f8cecc;strokeColor=#b85450;" parent="1" vertex="1">
          <mxGeometry x="1070" y="2810" width="120" height="60" as="geometry" />
        </mxCell>
        <mxCell id="Cy9AdBOT8W9fdo9LY3AT-15" style="edgeStyle=orthogonalEdgeStyle;rounded=0;orthogonalLoop=1;jettySize=auto;html=1;entryX=0.5;entryY=0;entryDx=0;entryDy=0;exitX=0.5;exitY=0;exitDx=0;exitDy=0;" parent="1" source="Cy9AdBOT8W9fdo9LY3AT-13" target="Cy9AdBOT8W9fdo9LY3AT-16" edge="1">
          <mxGeometry relative="1" as="geometry">
            <mxPoint x="1130" y="2800" as="sourcePoint" />
            <Array as="points">
              <mxPoint x="1130" y="2790" />
              <mxPoint x="1350" y="2790" />
            </Array>
          </mxGeometry>
        </mxCell>
        <mxCell id="Cy9AdBOT8W9fdo9LY3AT-16" value="track_id" style="rounded=0;whiteSpace=wrap;html=1;fontStyle=5;fontFamily=Courier New;fillColor=#f8cecc;strokeColor=#b85450;" parent="1" vertex="1">
          <mxGeometry x="1290" y="2810" width="120" height="60" as="geometry" />
        </mxCell>
        <mxCell id="Cy9AdBOT8W9fdo9LY3AT-17" value="quantity" style="rounded=0;whiteSpace=wrap;html=1;fontFamily=Courier New;fillColor=#dae8fc;strokeColor=#6c8ebf;" parent="1" vertex="1">
          <mxGeometry x="1530" y="2810" width="120" height="60" as="geometry" />
        </mxCell>
        <mxCell id="Cy9AdBOT8W9fdo9LY3AT-18" value="&lt;h1&gt;BOOKS_WITH_SUPPLIERS TABLE&lt;/h1&gt;" style="text;html=1;strokeColor=none;fillColor=none;spacing=5;spacingTop=-20;whiteSpace=wrap;overflow=hidden;rounded=0;fontFamily=Courier New;" parent="1" vertex="1">
          <mxGeometry x="1290" y="2750" width="410" height="40" as="geometry" />
        </mxCell>
        <mxCell id="nTbIWgnksrsz2wG5-Snl-3" value="&lt;font face=&quot;Courier New&quot;&gt;book_ISBN&lt;/font&gt;" style="rounded=0;whiteSpace=wrap;html=1;fillColor=#dae8fc;strokeColor=#6c8ebf;" parent="1" vertex="1">
          <mxGeometry x="1410" y="3160" width="120" height="60" as="geometry" />
        </mxCell>
        <mxCell id="nTbIWgnksrsz2wG5-Snl-4" value="&lt;font face=&quot;Courier New&quot;&gt;book_ISBN&lt;/font&gt;" style="rounded=0;whiteSpace=wrap;html=1;fillColor=#dae8fc;strokeColor=#6c8ebf;" parent="1" vertex="1">
          <mxGeometry x="1410" y="2810" width="120" height="60" as="geometry" />
        </mxCell>
        <mxCell id="Kl4oD5VNAjWur9m5AgLH-1" value="&lt;h1&gt;&lt;font size=&quot;1&quot; face=&quot;Courier New&quot;&gt;&lt;u style=&quot;font-size: 38px;&quot;&gt;Primary Keys and Foreign Keys&lt;/u&gt;&lt;/font&gt;&lt;/h1&gt;" style="text;html=1;strokeColor=#d6b656;fillColor=#fff2cc;spacing=5;spacingTop=-20;whiteSpace=wrap;overflow=hidden;rounded=0;" vertex="1" parent="1">
          <mxGeometry x="880" y="270" width="350" height="240" as="geometry" />
        </mxCell>
      </root>
    </mxGraphModel>
  </diagram>
</mxfile>
